<?xml version="1.0" encoding="UTF-8"?>
<svg version="1.1" viewBox="0 0 2048 2048" width="1280" height="1280" xmlns="http://www.w3.org/2000/svg">
<path transform="translate(1688,180)" fill="gray" d="m0 0h37l31 3 31 6 28 8 28 11 25 12 19 11 22 15 10 8 11 9 13 12 18 18 9 11 13 16 14 21 12 21 8 16 9 21 10 30 7 29 3 18 2-1v89l-2 2-5 28-7 28-10 28-11 24-9 17-13 21-21 28-12 13-7 8-11 11-8 7-13 11-18 13-14 9-19 11-15 8-5 1v754h167l10 3 10 7 7 8 4 8 2 2v45l-2 5-4 18-7 25-8 19-8 16-8 14-12 17-9 11-14 15-14 13-19 14-20 12-15 8-26 10-27 7-28 4-35 1h-1523l-49-1-22-3-22-5-24-8-26-12-21-13-17-13-20-18-12-13-10-13-7-10-9-15-10-19-9-24-4-14-4-17-3-12v-43l7-13 9-9 12-6 5-1h167v-911l2-18 4-18 5-16 7-17 8-15 8-12 10-13 6-7h2l2-4 13-12 18-13 16-9 18-8 18-6 20-4 26-2h982l1-12 4-28 6-27 9-29 9-22 10-21 13-22 8-12 11-15 13-16 11-12 17-17 8-7 15-12 20-14 20-12 23-12 24-10 31-10 27-6 29-4zm5 81-30 3-23 5-33 11-21 10-22 13-15 11-11 9-15 14-9 9-7 8-11 14-12 18-9 16-10 21-11 33-6 29-2 23v28l2 22 5 26 7 24 10 24 12 23 10 15 12 16 11 12 7 8 7 7 8 7 12 10 13 9 13 8 10 6 19 9 24 9 28 7 30 4h41l24-3 23-5 22-7 19-8 16-8 14-8 13-9 12-9 10-9 8-7 12-12v-2h2l9-11 10-13 12-19 11-21 8-20 5-15 6-24 3-21 1-11v-36l-3-25-4-20-6-21-10-25-10-20-12-19-9-12-9-11-14-15-15-14-12-9-17-12-21-12-19-9-33-11-30-6-25-2zm-1302 321-21 1-18 4-16 7-14 9-12 11-8 9-7 11-7 14-5 17-1 7-1 17v897h1485l1-728-37 4h-49l-26-3-26-5-25-7-28-10-26-12-21-12-18-12-16-12-11-9-13-12-20-20-20-25-12-18-9-15-12-23-10-23-9-27-7-28-2-7zm-88 1084-218 1 7 20 9 19 10 15 8 10 7 8h2l2 4h2v2l14 11 15 10 19 9 17 6 19 4 9 1 34 1h1538l26-1 19-3 15-4 20-8 19-11 12-9 12-11 9-9 13-17 10-18 9-23 1-6-1554-1z"/>
<path transform="translate(435,1104)" fill="gray" d="m0 0h1176l12 3 9 6 7 7 6 11 2 10v286l-2 11-5 10-9 10-12 6-12 2h-1169l-12-3-10-6-7-7-7-14-1-5v-293l4-12 8-11 10-7 7-3zm47 81v200h1083l1-98v-102z"/>
<path transform="translate(637,903)" fill="gray" d="m0 0h852l10 2 10 5 7 6 6 9 4 11v15l-4 11-6 9-8 7-13 5-8 1h-848l-10-2-10-5-6-5-7-10-4-11v-15l4-11 4-6 5-5 7-6 10-4z"/>
<path transform="translate(640,702)" fill="gray" d="m0 0h607l11 2 10 5 10 10 6 12 1 4v15l-3 9-6 10-9 8-12 5-6 1h-613l-10-3-10-6-7-8-6-12-1-4v-14l4-12 8-11 10-7 8-3z"/>
<path transform="translate(1820,411)" fill="gray" d="m0 0 15 2 8 4 10 9 6 9 3 9v15l-4 11-6 9-4 5h-2l-2 4h-2l-2 4-9 9h-2l-2 4h-2l-2 4h-2l-2 4h-2l-2 4h-2l-2 4h-2l-2 4h-2l-2 4h-2l-1 3-5 5h-2l-1 3-6 5-3 4h-2l-1 3-5 5h-2l-2 4h-2l-2 4h-2l-2 4h-2l-2 4h-2l-2 4h-2l-2 4h-2l-2 4h-2l-2 4h-2l-2 4h-2l-2 4h-2l-2 4h-2l-2 4h-2l-2 4h-2l-2 4h-2l-1 3-6 5-6 7-7 6-5 5-11 8-12 4h-11l-10-3-10-6-92-92-6-10-3-13 1-11 5-12 7-9 9-6 10-4h18l10 4 6 4 10 9 49 49 4-1 125-125 5-6 16-14 8-4z"/>
<path transform="translate(438,702)" fill="gray" d="m0 0 13 1 12 5 10 9 5 7 4 12v13l-3 10-7 11-8 7-12 5-4 1h-13l-10-3-10-6-7-8-5-10-2-7v-13l4-12 6-8 7-7 10-5z"/>
<path transform="translate(437,903)" fill="gray" d="m0 0h8l10 2 10 5 10 10 5 10 2 6v14l-3 10-5 8-5 6-9 6-9 3-6 1h-8l-12-3-9-6-7-7-6-11-2-7v-13l4-12 7-10 11-8 8-3z"/>
<path transform="translate(2047,1660)" fill="gray" d="m0 0"/>
</svg>
